<svg xmlns="http://www.w3.org/2000/svg" viewBox="0 0 256 256" fill="none">
  <rect width="256" height="256" rx="36" fill="#F4F7F2"/>
  <g stroke="#1F4D3A" stroke-width="9" stroke-linecap="round" stroke-linejoin="round">
    <path d="M60 164h136"/>
    <path d="M72 164v18c0 10 8 18 18 18h76c10 0 18-8 18-18v-18"/>
    <path d="M128 164V86"/>
    <path d="M128 92c-20 9-33 23-42 40"/>
    <path d="M128 98c22 10 35 24 44 42"/>
    <path d="M128 74c-24-12-36-27-40-44"/>
    <path d="M128 72c26-11 38-25 42-42"/>
  </g>
</svg>
<svg xmlns="http://www.w3.org/2000/svg" viewBox="0 0 256 256" fill="none">
  <rect width="256" height="256" rx="36" fill="#F4F7F2"/>
  <g stroke="#1F4D3A" stroke-width="9" stroke-linecap="round" stroke-linejoin="round">
    <path d="M60 164h136"/>
    <path d="M72 164v18c0 10 8 18 18 18h76c10 0 18-8 18-18v-18"/>
    <path d="M128 164V86"/>
    <path d="M128 92c-20 9-33 23-42 40"/>
    <path d="M128 98c22 10 35 24 44 42"/>
    <path d="M128 74c-24-12-36-27-40-44"/>
    <path d="M128 72c26-11 38-25 42-42"/>
  </g>
</svg>
